<?xml version="1.0" encoding="UTF-8"?> <!-- Generated by IcoMoon.io --> <svg xmlns="http://www.w3.org/2000/svg" width="640" height="640" viewBox="0 0 640 640"><title>user</title><g id="icomoon-ignore"> </g><path fill="#00335b" d="M512 512h-304c-8.836 0-16-7.163-16-16s7.164-16 16-16h304c52.935 0 96-43.065 96-96s-43.065-96-96-96c-10.985 0-21.748 1.835-31.988 5.454-6.938 2.451-14.657-0.146-18.701-6.297-4.043-6.15-3.368-14.267 1.635-19.665 10.997-11.866 17.054-27.312 17.054-43.492 0-35.29-28.71-64-64-64-33.748 0-61.805 26.351-63.874 59.991-0.417 6.786-5.078 12.567-11.621 14.415-6.546 1.85-13.54-0.642-17.445-6.206-29.973-42.704-78.967-68.2-131.060-68.2-88.224 0-160 71.775-160 160 0 4.856 0.22 9.757 0.653 14.563 0.793 8.801-5.698 16.578-14.499 17.372-8.8 0.799-16.578-5.698-17.372-14.499-0.519-5.757-0.782-11.624-0.782-17.436 0-105.869 86.131-192 192-192 51.552 0 100.573 20.804 136.343 56.833 15.058-33.591 48.85-56.833 87.657-56.833 52.935 0 96 43.065 96 96 0 11.069-1.89 21.91-5.511 32.116 1.832-0.077 3.669-0.116 5.511-0.116 70.579 0 128 57.421 128 128s-57.421 128-128 128z"></path><path fill="#00335b" d="M112 496c-4.095 0-8.189-1.562-11.314-4.687l-64-64c-6.248-6.248-6.248-16.379 0-22.627s16.379-6.248 22.628 0l52.686 52.686 148.686-148.686c6.249-6.248 16.379-6.248 22.628 0 6.248 6.248 6.248 16.379 0 22.627l-160 160c-3.125 3.125-7.219 4.687-11.314 4.687z"></path></svg> 