<?xml version="1.0" encoding="UTF-8"?> <!-- Generated by IcoMoon.io --> <svg xmlns="http://www.w3.org/2000/svg" width="640" height="640" viewBox="0 0 640 640"><title>user</title><g id="icomoon-ignore"> </g><path fill="#00335b" d="M560.014 501.226c-5.984 0-11.724-3.373-14.463-9.138-3.792-7.981-0.396-17.526 7.586-21.318 33.328-15.834 54.863-49.894 54.863-86.77 0-52.935-43.065-96-96-96-10.978 0-21.739 1.835-31.986 5.454-6.935 2.452-14.655-0.148-18.698-6.299s-3.368-14.265 1.635-19.664c10.993-11.864 17.049-27.309 17.049-43.491 0-35.29-28.71-64-64-64-33.745 0-61.803 26.351-63.876 59.99-0.418 6.786-5.079 12.566-11.621 14.414-6.544 1.846-13.54-0.643-17.444-6.206-29.975-42.703-78.968-68.198-131.059-68.198-88.224 0-160 71.776-160 160 0 60.411 33.443 115.036 87.278 142.56 7.868 4.022 10.985 13.661 6.963 21.529s-13.66 10.987-21.529 6.963c-31.012-15.855-57.172-39.869-75.653-69.448-19.011-30.428-29.059-65.562-29.059-101.604 0-105.869 86.131-192 192-192 51.55 0 100.572 20.805 136.343 56.833 15.058-33.593 48.85-56.833 87.657-56.833 52.935 0 96 43.065 96 96 0 11.070-1.89 21.91-5.51 32.116 1.832-0.077 3.669-0.116 5.51-0.116 70.579 0 128 57.42 128 128 0 24.678-7.042 48.64-20.363 69.296-12.963 20.098-31.209 36.135-52.768 46.378-2.217 1.053-4.555 1.552-6.855 1.552z"></path><path fill="#00335b" d="M336 512c-26.467 0-48-21.532-48-48s21.533-48 48-48c26.468 0 48 21.532 48 48s-21.532 48-48 48zM336 448c-8.822 0-16 7.178-16 16s7.178 16 16 16 16-7.178 16-16-7.178-16-16-16z"></path><path fill="#00335b" d="M288.533 632.841c-1.59 0-3.188-0.237-4.74-0.719-24.806-7.695-48.059-21.139-67.245-38.878-3.425-3.167-5.297-7.671-5.127-12.333s2.367-9.017 6.014-11.925c12.25-9.768 15.565-27.388 7.714-40.985-5.7-9.874-16.334-16.007-27.754-16.007-3.997 0-7.906 0.741-11.621 2.202-4.346 1.711-9.222 1.437-13.348-0.751-4.127-2.186-7.092-6.066-8.118-10.622-2.859-12.692-4.308-25.755-4.308-38.823s1.449-26.131 4.308-38.823c1.026-4.556 3.991-8.436 8.118-10.622 4.126-2.187 9.003-2.461 13.348-0.752 3.715 1.462 7.625 2.203 11.621 2.203 11.42 0 22.055-6.133 27.754-16.006 7.852-13.599 4.535-31.219-7.714-40.986-3.647-2.908-5.843-7.264-6.014-11.925s1.702-9.166 5.127-12.333c19.185-17.738 42.438-31.182 67.245-38.878 4.458-1.383 9.297-0.75 13.25 1.732s6.625 6.567 7.315 11.183c2.32 15.511 15.923 27.207 31.642 27.207s29.322-11.696 31.642-27.207c0.69-4.616 3.362-8.701 7.315-11.183 3.952-2.482 8.793-3.113 13.25-1.732 24.807 7.696 48.060 21.14 67.243 38.877 3.425 3.167 5.297 7.671 5.127 12.332s-2.366 9.017-6.013 11.925c-12.249 9.769-15.565 27.389-7.714 40.985 5.701 9.875 16.335 16.008 27.756 16.008 3.996-0.001 7.906-0.741 11.62-2.202 4.346-1.71 9.222-1.435 13.348 0.752s7.092 6.066 8.118 10.622c2.859 12.692 4.308 25.755 4.308 38.823s-1.449 26.13-4.308 38.821c-1.026 4.556-3.992 8.437-8.118 10.622-4.129 2.188-9.004 2.461-13.349 0.752-3.714-1.461-7.623-2.202-11.619-2.202-11.42 0-22.055 6.133-27.753 16.005-7.854 13.6-4.538 31.22 7.712 40.987 3.646 2.908 5.843 7.264 6.014 11.925s-1.702 9.165-5.127 12.332c-19.184 17.739-42.437 31.184-67.245 38.879-4.458 1.384-9.299 0.75-13.249-1.731-3.953-2.482-6.625-6.567-7.315-11.183-2.32-15.512-15.923-27.208-31.641-27.207-15.722 0-29.324 11.696-31.644 27.208-0.69 4.616-3.362 8.7-7.315 11.183-2.576 1.618-5.53 2.45-8.51 2.45zM250.469 579.833c8.694 6.42 18.106 11.868 27.968 16.188 3.746-7.697 9.033-14.637 15.602-20.345 11.632-10.109 26.533-15.676 41.958-15.676 15.429-0.001 30.331 5.565 41.964 15.675 6.569 5.709 11.856 12.648 15.603 20.347 9.863-4.321 19.274-9.77 27.969-16.189-4.789-7.096-8.15-15.146-9.805-23.688-2.928-15.119-0.295-30.797 7.413-44.146 11.395-19.74 32.648-32.005 55.466-32.005 1.505 0 3.002 0.053 4.493 0.156 0.599-5.354 0.9-10.751 0.9-16.149 0-5.399-0.302-10.797-0.9-16.152-1.49 0.104-2.988 0.157-4.492 0.157-22.817 0.001-44.072-12.264-55.47-32.008-7.706-13.345-10.339-29.021-7.411-44.141 1.654-8.544 5.015-16.594 9.804-23.689-8.693-6.42-18.105-11.867-27.968-16.188-3.746 7.698-9.033 14.638-15.603 20.347-11.633 10.106-26.534 15.673-41.96 15.673s-30.327-5.567-41.96-15.675c-6.569-5.709-11.856-12.648-15.603-20.347-9.862 4.321-19.273 9.769-27.968 16.188 4.789 7.096 8.151 15.146 9.805 23.689 2.928 15.118 0.295 30.795-7.411 44.144-11.397 19.741-32.651 32.006-55.467 32.006-1.505 0-3.003-0.053-4.494-0.157-0.6 5.356-0.902 10.753-0.902 16.152s0.302 10.796 0.901 16.151c1.491-0.104 2.99-0.157 4.495-0.157 22.816 0 44.070 12.265 55.467 32.007 7.707 13.347 10.339 29.024 7.411 44.144-1.654 8.542-5.016 16.592-9.805 23.688z"></path></svg> 